<svg width="136" height="163" viewBox="0 0 136 163" fill="none" xmlns="http://www.w3.org/2000/svg">
<g clip-path="url(#clip0_60_1331)">
<path d="M41.6036 155.08C24.1731 155.08 10.0354 140.948 10.0354 123.512V97.4294C10.0354 79.9989 24.167 65.8612 41.6036 65.8612H50.5151L0 0V102.486L0.0302088 102.474C0.0120835 102.909 0 103.344 0 103.779V131.946C0 148.803 13.6665 162.469 30.523 162.469H96.5171C106.359 162.469 115.108 157.805 120.69 150.573C115.941 153.43 110.377 155.08 104.432 155.08H41.6036Z" fill="#93D4B5"/>
<path d="M121.445 43.1503L90.9164 60.7741C85.1405 64.1091 78.5912 65.8613 71.9271 65.8613H50.5151L56.1823 73.2503H96.5171C113.374 73.2503 127.04 86.9168 127.04 103.773V131.94C127.04 138.954 124.666 145.413 120.69 150.567C129.862 145.045 135.994 134.991 135.994 123.506V98.2209V51.5483C135.994 44.0807 127.91 39.4104 121.439 43.1442L121.445 43.1503Z" fill="#CF8F4A"/>
<path d="M127.04 103.773C127.04 86.9169 113.374 73.2504 96.5171 73.2504H56.1824L50.5152 65.8613H41.6036C24.1731 65.8613 10.0354 79.993 10.0354 97.4295V123.512C10.0354 140.942 24.1671 155.08 41.6036 155.08H104.432C110.377 155.08 115.941 153.431 120.69 150.573C124.666 145.419 127.04 138.961 127.04 131.946V103.779V103.773Z" fill="#125358"/>
<path d="M37.625 120.877C42.797 120.877 46.9897 116.685 46.9897 111.513C46.9897 106.341 42.797 102.148 37.625 102.148C32.453 102.148 28.2603 106.341 28.2603 111.513C28.2603 116.685 32.453 120.877 37.625 120.877Z" fill="white"/>
<path d="M99.2515 120.877C104.423 120.877 108.616 116.685 108.616 111.513C108.616 106.341 104.423 102.148 99.2515 102.148C94.0795 102.148 89.8867 106.341 89.8867 111.513C89.8867 116.685 94.0795 120.877 99.2515 120.877Z" fill="white"/>
<path d="M68.441 120.83C71.5342 120.83 74.0418 118.322 74.0418 115.229C74.0418 112.136 71.5342 109.628 68.441 109.628C65.3479 109.628 62.8403 112.136 62.8403 115.229C62.8403 118.322 65.3479 120.83 68.441 120.83Z" fill="white"/>
</g>
<defs>
<clipPath id="clip0_60_1331">
<rect width="136" height="162.469" fill="white"/>
</clipPath>
</defs>
</svg>
